<svg width="90" height="32" viewBox="0 0 90 32" fill="none" xmlns="http://www.w3.org/2000/svg">
<path d="M4.88572 22.5057V9.49429C4.88572 9.26286 5.01429 9.10857 5.24572 9.10857H6.90429C7.14857 9.10857 7.29 9.23715 7.29 9.49429V22.48C7.29 22.7629 7.17429 22.8786 6.90429 22.8786H5.24572C5.00143 22.8914 4.88572 22.75 4.88572 22.5057Z" fill="#3B82F6"/>
<path d="M11.0071 17.6467L16.4457 11.321C16.4824 11.2863 16.5116 11.2445 16.5315 11.198C16.5514 11.1516 16.5616 11.1015 16.5614 11.051C16.5614 10.8582 16.4457 10.7425 16.24 10.7425H14.7871C14.3886 10.7425 14.0543 10.871 13.7329 11.1796L8.80857 16.9267C8.59 17.1582 8.51286 17.3382 8.5 17.6339C8.51286 17.9296 8.59 18.1096 8.80857 18.341L13.7329 24.0753C14.0543 24.3839 14.3886 24.5125 14.7871 24.5125H16.24C16.4457 24.5125 16.5614 24.3967 16.5614 24.2039C16.5583 24.1025 16.517 24.0061 16.4457 23.9339L11.0071 17.6467ZM18.0914 19.3696V11.0253C18.0914 10.8196 18.1814 10.6396 18.4514 10.6396H20.1357C20.38 10.6396 20.4957 10.8067 20.4957 11.0253V19.3696C20.4957 21.761 21.5114 22.4939 23.5171 22.4939C25.4714 22.4939 26.5257 21.7996 26.5257 19.3567V11.0253C26.5257 10.8196 26.6414 10.6396 26.8857 10.6396H28.57C28.8143 10.6396 28.9557 10.8067 28.9557 11.0253V19.4467C28.9557 21.8382 28.21 24.6282 23.5043 24.6282C19.4929 24.6282 18.0914 22.5967 18.0914 19.3696ZM42.7771 19.3696V11.0253C42.7771 10.8196 42.8671 10.6396 43.1371 10.6396H44.8214C45.0657 10.6396 45.1814 10.8067 45.1814 11.0253V19.3696C45.1814 21.761 46.1971 22.4939 48.2029 22.4939C50.1571 22.4939 51.2114 21.7996 51.2114 19.3567V11.0253C51.2114 10.8196 51.3271 10.6396 51.5714 10.6396H53.2557C53.5 10.6396 53.6414 10.8067 53.6414 11.0253V19.4467C53.6414 21.8382 52.8957 24.6282 48.19 24.6282C44.1786 24.6282 42.7771 22.5967 42.7771 19.3696ZM84.4986 6.30674H58.7071C58.2197 6.30717 57.7522 6.50101 57.4075 6.84571C57.0628 7.19042 56.869 7.65782 56.8686 8.14531V27.1225C56.869 27.6099 57.0628 28.0773 57.4075 28.4221C57.7522 28.7668 58.2197 28.9606 58.7071 28.961H84.4986C84.9861 28.9606 85.4534 28.7668 85.7982 28.4221C86.1429 28.0773 86.3367 27.6099 86.3371 27.1225V8.14531C86.3243 7.1296 85.5014 6.30674 84.4986 6.30674ZM67.4757 12.4525C67.4757 12.6582 67.3857 12.8382 67.09 12.8382H61.8443V16.6053H66.82C67.1286 16.6053 67.2057 16.7725 67.2057 16.991V18.251C67.2057 18.4567 67.1543 18.6496 66.82 18.6496H61.8443V24.101C61.8443 24.3453 61.7543 24.5253 61.4586 24.5253H59.8129C59.5429 24.5253 59.4271 24.371 59.4271 24.1396V12.4653C59.4271 11.0125 60.34 10.7425 61.0857 10.7425H67.0771C67.3471 10.7425 67.4628 10.8967 67.4628 11.1025V12.4525H67.4757ZM83.7529 24.1782C83.74 24.4225 83.6243 24.5253 83.4057 24.5253H81.7214C81.4771 24.5253 81.3743 24.3967 81.3614 24.1653V14.0725L78.3143 22.2753C78.1986 22.5839 77.7614 23.4582 76.6686 23.4582H76.2829C75.2543 23.4582 74.8043 22.5839 74.6886 22.2367L71.68 14.0339V24.1525C71.6671 24.3839 71.5643 24.5125 71.2943 24.5125H69.61C69.4043 24.5125 69.2886 24.4225 69.2886 24.1653V12.2596C69.2886 11.4753 69.7643 10.7425 71.1271 10.7425H71.5257C71.9243 10.7425 72.85 10.871 73.21 11.8739L76.5143 20.9639L79.8186 11.8739C80.32 10.8453 80.9629 10.7425 81.5543 10.7425H81.9143C83.2386 10.7425 83.7271 11.4882 83.7271 12.2596V24.1782H83.7529ZM30.7814 24.1396V11.1282C30.7814 10.8967 30.91 10.7425 31.1414 10.7425H32.8C33.0443 10.7425 33.1857 10.871 33.1857 11.1282V24.1139C33.1857 24.3967 33.07 24.5125 32.8 24.5125H31.1414C30.8971 24.5253 30.7814 24.3839 30.7814 24.1396ZM35.6929 17.6467L41.1314 11.321C41.1681 11.2863 41.1974 11.2445 41.2173 11.198C41.2372 11.1516 41.2473 11.1015 41.2471 11.051C41.2471 10.8582 41.1314 10.7425 40.9257 10.7425H39.4729C39.0743 10.7425 38.74 10.871 38.4186 11.1796L33.4943 16.9267C33.2757 17.1582 33.1986 17.3382 33.1857 17.6339C33.1986 17.9296 33.2757 18.1096 33.4943 18.341L38.4186 24.0753C38.74 24.3839 39.0743 24.5125 39.4729 24.5125H40.9257C41.1314 24.5125 41.2471 24.3967 41.2471 24.2039C41.244 24.1025 41.2027 24.0061 41.1314 23.9339L35.6929 17.6467Z" fill="#3B82F6"/>
</svg>
