<svg width="194" height="195" viewBox="0 0 194 195" fill="none" xmlns="http://www.w3.org/2000/svg">
<path d="M92.6 0.27298C78.326 1.48198 71.579 2.925 61.4 6.903C49.193 11.7 38.936 18.33 29.498 27.456C16.316 40.287 8.24301 53.859 2.78301 72.54C2.43201 73.71 1.65201 77.298 1.06701 80.535C0.0530121 86.073 -0.0249878 86.97 0.0140122 97.695C0.0140122 109.434 0.209012 111.384 2.27601 120.159C6.52701 138.138 15.965 154.518 29.654 167.7C47.984 185.289 71.033 194.571 96.695 194.61C106.133 194.649 111.983 193.947 121.265 191.646C146.069 185.484 168.455 168.363 181.403 145.587C189.944 130.572 194 115.128 194 97.5C194 80.769 190.49 66.417 182.807 51.87C178.088 42.978 173.291 36.543 165.374 28.626C151.763 15.054 136.202 6.51299 117.755 2.49599C110.228 0.857987 98.138 -0.23402 92.6 0.27298ZM165.959 78.741L167.09 79.872V97.5V115.128L165.959 116.259L164.828 117.39H141.155H117.482L116.351 116.259L115.22 115.128V97.5V79.872L116.351 78.741L117.482 77.61H141.155H164.828L165.959 78.741ZM52.04 93.99C52.274 103.116 52.43 103.935 54.068 105.066C55.238 105.885 59.372 105.885 60.542 105.066C62.219 103.896 62.375 103.155 62.57 93.99L62.765 85.215H64.715H66.665L66.782 94.185C66.899 104.013 66.665 105.378 64.598 107.445C62.999 109.083 61.127 109.668 57.695 109.746C52.547 109.824 49.622 108.186 48.335 104.559C47.867 103.233 47.75 101.01 47.75 94.185C47.75 89.427 47.867 85.41 48.023 85.254C48.179 85.098 49.115 85.02 50.09 85.098L51.845 85.215L52.04 93.99ZM95.33 94.185C95.447 99.099 95.681 103.467 95.876 103.857C97.046 106.275 103.754 106.275 104.924 103.857C105.119 103.467 105.353 99.099 105.47 94.185L105.665 85.215L107.459 85.098C108.668 85.02 109.409 85.176 109.721 85.566C110.072 85.995 110.189 88.374 110.072 94.848C109.955 102.804 109.877 103.701 109.097 105.378C107.966 107.796 105.938 109.161 102.467 109.668C97.514 110.448 93.692 109.005 91.82 105.69C90.884 103.974 90.845 103.701 90.728 95.043C90.65 90.129 90.689 85.878 90.806 85.566C90.962 85.137 91.547 85.02 93.068 85.098L95.135 85.215L95.33 94.185ZM31.37 90.909V96.369L36.089 90.909L40.808 85.41H43.109C44.435 85.41 45.41 85.566 45.41 85.8C45.41 86.034 43.304 88.686 40.73 91.689C38.156 94.692 36.05 97.344 36.05 97.539C36.05 97.734 38.156 100.347 40.73 103.311C43.304 106.314 45.41 108.927 45.41 109.161C45.41 109.434 44.474 109.59 43.109 109.59H40.808L37.532 105.807C35.777 103.74 33.632 101.283 32.852 100.347L31.409 98.631L31.292 104.013L31.175 109.395H29.03H26.885L26.768 97.89C26.729 91.572 26.768 86.19 26.885 85.917C27.002 85.605 27.821 85.41 29.225 85.41H31.37V90.909ZM74.348 90.87L74.465 96.369L78.911 91.104C81.329 88.218 83.591 85.761 83.903 85.644C85.034 85.176 88.31 85.41 88.31 85.917C88.31 86.151 86.204 88.842 83.63 91.845C81.056 94.809 78.95 97.383 78.95 97.539C78.95 97.656 80.393 99.411 82.187 101.439C86.789 106.704 88.31 108.615 88.31 109.161C88.31 109.434 87.491 109.59 86.126 109.59C83.63 109.59 84.059 109.941 78.131 102.999L74.465 98.67L74.348 104.13L74.231 109.59H72.125H69.98V97.5V85.41H72.125H74.231L74.348 90.87Z" fill="#3B82F6"/>
</svg>
